<svg width="37" height="37" viewBox="0 0 37 37" fill="none" xmlns="http://www.w3.org/2000/svg">
<path d="M18.4997 34.8876C17.4668 34.8876 16.4185 34.6564 15.6014 34.1784L7.12229 29.2914C3.66896 26.9634 3.45312 26.6089 3.45312 22.9551V14.0443C3.45312 10.3905 3.65354 10.0359 7.04521 7.73887L15.586 2.80553C17.2047 1.86512 19.7485 1.86512 21.3672 2.80553L29.8772 7.70803C33.3306 10.0359 33.5464 10.3905 33.5464 14.0443V22.9397C33.5464 26.5934 33.346 26.948 29.9543 29.2451L21.4135 34.1784C20.581 34.6564 19.5327 34.8876 18.4997 34.8876ZM18.4997 4.42428C17.8522 4.42428 17.2202 4.54762 16.7731 4.8097L8.29396 9.7122C5.78104 11.408 5.78104 11.408 5.78104 14.0443V22.9397C5.78104 25.5759 5.78104 25.5759 8.35562 27.318L16.7731 32.1743C17.6827 32.6984 19.3322 32.6984 20.2418 32.1743L28.721 27.2718C31.2185 25.5759 31.2185 25.5759 31.2185 22.9397V14.0443C31.2185 11.408 31.2185 11.408 28.6439 9.66595L20.2264 4.8097C19.7793 4.54762 19.1472 4.42428 18.4997 4.42428Z" fill="black"/>
<path d="M18.5 24.2812C15.3088 24.2812 12.7188 21.6912 12.7188 18.5C12.7188 15.3088 15.3088 12.7188 18.5 12.7188C21.6912 12.7188 24.2812 15.3088 24.2812 18.5C24.2812 21.6912 21.6912 24.2812 18.5 24.2812ZM18.5 15.0312C16.5883 15.0312 15.0312 16.5883 15.0312 18.5C15.0312 20.4117 16.5883 21.9688 18.5 21.9688C20.4117 21.9688 21.9688 20.4117 21.9688 18.5C21.9688 16.5883 20.4117 15.0312 18.5 15.0312Z" fill="black"/>
</svg>
