<svg width="24" height="25" viewBox="0 0 24 25" fill="none" xmlns="http://www.w3.org/2000/svg">
<path d="M4.70662 14.7913C4.12605 14.7913 3.56926 14.5511 3.15873 14.1235C2.74821 13.6958 2.51758 13.1158 2.51758 12.5111C2.51758 11.9063 2.74821 11.3263 3.15873 10.8987C3.56926 10.4711 4.12605 10.2308 4.70662 10.2308C5.28719 10.2308 5.84398 10.4711 6.2545 10.8987C6.66503 11.3263 6.89566 11.9063 6.89566 12.5111C6.89566 13.1158 6.66503 13.6958 6.2545 14.1235C5.84398 14.5511 5.28719 14.7913 4.70662 14.7913ZM12.0034 14.7913C11.4228 14.7913 10.8661 14.5511 10.4555 14.1235C10.045 13.6958 9.81438 13.1158 9.81438 12.5111C9.81438 11.9063 10.045 11.3263 10.4555 10.8987C10.8661 10.4711 11.4228 10.2308 12.0034 10.2308C12.584 10.2308 13.1408 10.4711 13.5513 10.8987C13.9618 11.3263 14.1925 11.9063 14.1925 12.5111C14.1925 13.1158 13.9618 13.6958 13.5513 14.1235C13.1408 14.5511 12.584 14.7913 12.0034 14.7913ZM19.3002 14.7913C18.7196 14.7913 18.1629 14.5511 17.7523 14.1235C17.3418 13.6958 17.1112 13.1158 17.1112 12.5111C17.1112 11.9063 17.3418 11.3263 17.7523 10.8987C18.1629 10.4711 18.7196 10.2308 19.3002 10.2308C19.8808 10.2308 20.4376 10.4711 20.8481 10.8987C21.2586 11.3263 21.4893 11.9063 21.4893 12.5111C21.4893 13.1158 21.2586 13.6958 20.8481 14.1235C20.4376 14.5511 19.8808 14.7913 19.3002 14.7913Z" fill="#A1A0BD"/>
</svg>
